<?xml version="1.0" encoding="iso-8859-1"?>
<!-- Generator: Adobe Illustrator 19.0.0, SVG Export Plug-In . SVG Version: 6.00 Build 0)  -->
<svg version="1.1" id="Layer_1" xmlns="http://www.w3.org/2000/svg" xmlns:xlink="http://www.w3.org/1999/xlink" x="0px" y="0px"
	 viewBox="0 0 512 512" style="enable-background:new 0 0 512 512;" xml:space="preserve">
<g>
	<g>
		<path d="M471.493,494.173L444.559,103.98c-0.604-8.744-7.873-15.53-16.639-15.53h-62.756V57.238
			C365.164,25.676,339.487,0,307.926,0H204.072c-31.56,0-57.238,25.676-57.238,57.238v31.212H84.078
			c-8.765,0-16.034,6.786-16.638,15.529L40.507,494.173C39.842,503.819,47.495,512,57.145,512h397.709
			C464.52,512,472.157,503.801,471.493,494.173z M180.192,57.238c0-13.169,10.713-23.882,23.882-23.882h103.853
			c13.169,0,23.882,10.713,23.882,23.882v26.841H180.192V57.238z M75.014,478.644l24.63-356.838h312.709l24.63,356.838H75.014z"/>
	</g>
</g>
<g>
</g>
<g>
</g>
<g>
</g>
<g>
</g>
<g>
</g>
<g>
</g>
<g>
</g>
<g>
</g>
<g>
</g>
<g>
</g>
<g>
</g>
<g>
</g>
<g>
</g>
<g>
</g>
<g>
</g>
</svg>
