<?xml version="1.0" encoding="utf-8"?>
<!-- Generator: Adobe Illustrator 16.0.0, SVG Export Plug-In . SVG Version: 6.00 Build 0)  -->
<!DOCTYPE svg PUBLIC "-//W3C//DTD SVG 1.1//EN" "http://www.w3.org/Graphics/SVG/1.1/DTD/svg11.dtd">
<svg version="1.1" id="Слой_1" xmlns="http://www.w3.org/2000/svg" xmlns:xlink="http://www.w3.org/1999/xlink" x="0px" y="0px"
	 width="524.001px" height="410px" viewBox="0 0 524.001 410" enable-background="new 0 0 524.001 410" xml:space="preserve">
<path d="M264.223,410L0,4.795h524.001L264.223,410z M7.081,8.627l257.114,394.308L516.979,8.627H7.081z"/>
<path fill-rule="evenodd" clip-rule="evenodd" d="M271.291,239.994l1.313,0.863l9.357-9.792c8.286-0.347,15.853-2.488,22.542-6.759
	l-0.649-1.077c-5.424,1.935-11.022,2.84-16.882,2.17l1.685-3.047c24.665-0.741,37.111-10.152,39.702-26.565l2.612-0.768
	c-0.911,6.689-3.166,12.55-7.414,17.202l1.424,1.091c7.014-5.798,11.526-12.964,14.048-21.229
	c-20.993-0.705-39.583,7.159-53.903,30.269C280.488,228.327,275.65,233.615,271.291,239.994 M144.509,95.838
	c-0.014,0.428-0.069,0.822-0.121,1.202c-0.062,0.525-0.125,1.023,0.017,1.638l45.41,22.218l-0.066-0.429
	c-0.163-0.939-0.332-1.859-0.5-2.75L144.509,95.838z M147.094,102.894l43.302,21.173c0.224,1.1,0.486,2.191,0.783,3.276
	l-41.936-20.504c-0.608-1.091-1.162-2.114-1.583-2.902C147.439,103.53,147.249,103.177,147.094,102.894 M151.749,110.958
	l40.451,19.785c0.394,1.182,0.826,2.357,1.295,3.524l-38.83-18.983c-0.353-0.649-0.688-1.223-0.975-1.679v-0.007
	c-0.321-0.512-0.605-0.913-0.829-1.175C152.516,112.03,152.132,111.525,151.749,110.958 M156.624,119.134l38.492,18.824
	c0.211,0.442,0.428,0.884,0.649,1.327c0.284,0.732,0.439,1.444,0.481,2.122l-38.064-18.617c-0.127-0.332-0.255-0.663-0.389-1.001
	C157.432,120.917,157.034,120.011,156.624,119.134 M159.153,126.155c0.211,1.161,0.217,2.163-0.073,2.861l35.382,17.311
	c0.425-0.726,0.829-1.458,1.196-2.204l0.045-0.083L159.153,126.155z M157.228,131.006c-0.439,0.726-0.604,1.624-0.553,2.626
	l34.761,17c0.556-0.691,1.094-1.389,1.597-2.115L157.228,131.006z M157.376,136.867c0.428,1.244,1.023,2.515,1.696,3.725
	l28.745,14.063c0.297-0.339,0.601-0.678,0.905-1.016c0.318-0.318,0.629-0.65,0.944-0.981L157.376,136.867z M161.827,144.841
	l24.285,11.873c-0.544,0.698-1.069,1.41-1.577,2.121l-18.493-9.039l-0.586-0.698c-0.474-0.581-1.027-1.244-1.854-2.128h-0.007
	C163.078,146.417,162.47,145.691,161.827,144.841 M182.531,161.903c-0.269,0.45-0.535,0.905-0.791,1.355l-1.479-0.719
	c-0.168,0.836-0.318,1.741-0.749,2.522l0.995,0.491c-0.394,0.774-0.771,1.555-1.123,2.343l-0.964-0.47
	c-0.224,0.83-0.418,1.701-0.846,2.488l15.355,7.504c0.763-0.498,1.419-1.084,2.114-1.859l-14.065-6.875
	c0.438-0.768,0.892-1.514,1.351-2.24l14.415,7.049l1.009-1.313c0.229-0.291,0.432-0.546,0.632-0.774l-14.592-7.139
	c0.522-0.732,1.054-1.437,1.608-2.108l14.843,7.256c0.498-0.532,0.971-1.14,1.545-2.135l-14.619-7.152
	c0.642-0.685,1.298-1.327,1.986-1.928l13.814,6.759l1.14-2.335l-12.69-6.206l2.373-1.735l11.44,5.598
	c0.298-0.636,0.568-1.23,0.771-1.721l0.999-0.304c0.312-5.176-0.27-9.613-1.823-13.221c-3.681-9.764-6.772-19.743-9.306-29.943
	c-3.388-14.595-11.437-25.23-22.573-33.226L155.88,68.113c-7.59-6.303-15.679-10.318-24.194-12.501
	c0.958,0.146,1.932,0.305,2.91,0.519c0.798,0.18,1.634,0.408,2.471,0.649l1.109,0.311l0.007,0.007
	c0.95,0.255,2.104,0.553,3.265,0.851c2.115,0.545,4.222,1.098,6.303,1.734c2.563,0.802,5.075,1.776,7.58,2.744l0.658,0.256
	c2.625,1.016,5.23,2.107,7.818,3.241c2.612,1.147,5.18,2.315,7.737,3.483c2.499,1.154,4.965,2.35,7.342,3.697
	c2.367,1.341,4.638,2.833,6.766,4.583c1.932,1.589,3.849,3.192,5.643,4.92c1.769,1.714,3.418,3.552,4.811,5.625
	c2.044,3.04,4.056,6.102,5.833,9.239c1.783,3.15,3.344,6.426,4.525,9.91c0.851,2.509,1.756,4.976,2.665,7.429l1.116,3.047
	l1.351,3.705l0.546,1.472l0.156,0.421l0.438-0.117l0.884-0.249l0.377-0.097l-0.015-0.394c-0.12-3.407-1.174-6.621-2.217-9.799
	c-0.211-0.65-0.43-1.306-0.602-1.859c-0.86-2.729-1.932-5.37-3.041-8.113l-0.957-2.377c1.963,1.32,3.39,3.075,4.792,4.79
	c0.543,0.677,1.096,1.347,1.691,2.004l0.255,0.29l0.338-0.173l0.532-0.283l0.353-0.187l-0.103-0.38l-0.619-2.322
	c1.084,0.318,2.505,1.175,3.774,2.177c1.451,1.154,2.681,2.474,2.929,3.366c-0.107,0.166-0.2,0.339-0.282,0.512l-0.972-0.47
	c-1.208,0.546-2.418,1.099-2.491,1.161c-0.148,0.131-0.258,0.249-0.359,0.339l3.269,1.603c0.007,1.085,0.243,2.184,0.581,3.179
	l-6.158-3.013c-0.061,0.691,0.277,1.721,0.27,2.19c-0.006,0.36,0.073,0.656,0.201,0.933l9.422,4.61l-0.311-0.857l0.007-0.007
	c0.208-0.18,0.315-0.49,0.291-0.953c-0.028-0.47-0.09-0.947-0.155-1.424c-0.211-1.624-0.433-3.255,1.091-4.651
	c0.283-0.248,0.508-0.442,0.705-0.539v0.007c0.166-0.09,0.35-0.11,0.588-0.068c1.451,0.269,2.039,1.492,2.612,2.688l0.27,0.553
	c0.39,0.774,0.722,1.603,1.047,2.425l0.46,1.119l0.148,0.36l0.377-0.055l0.493-0.069l0.425-0.062v-0.421
	c0-0.27,0.015-0.519,0.027-0.768c0.028-0.615,0.059-1.243-0.068-1.852v-0.007c-0.1-0.497-0.291-0.975-0.491-1.437v-0.007
	c-0.169-0.415-0.338-0.822-0.42-1.224c-0.039-0.18-0.026-0.414,0.034-0.643c0.041-0.18,0.113-0.345,0.189-0.415
	c0.857-0.788,1.973-0.981,3.113-0.892c1.195,0.097,2.43,0.519,3.409,0.919l0.039,0.007l0.056,0.014
	c5.137,1.078,6.624,2.412,6.996,4.021l-9.177-4.485c-0.508,0.587-0.806,0.981-0.864,2.467l10.065,4.928
	c-0.052,0.94-0.044,1.942,0.238,3.013l-7.677-3.759c0.168,1.23,0.072,2.087-0.049,2.868l10.656,5.218
	c0.493,0.435,1.06,0.877,1.72,1.327l0.771,0.532v-0.94c0-0.366,0.021-0.705,0.042-1.03c0.045-0.718,0.08-1.375-0.09-2.018
	c-0.553-2.101-1.154-4.202-1.755-6.296c-0.513-1.783-1.021-3.565-1.517-5.39c-0.034-0.131-0.015-0.345,0.044-0.553h-0.007
	c0.041-0.145,0.09-0.263,0.118-0.276c1.536-0.926,3.079-1.776,4.686-2.219c1.579-0.435,3.247-0.491,5.079,0.131
	c1.022,0.345,2.072,0.656,3.158,0.739c1.111,0.083,2.253-0.076,3.4-0.677c1.098-0.587,2.238-0.975,3.414-1.182
	c1.181-0.207,2.411-0.228,3.703-0.068c2.495,0.311,5.017,0.442,7.533,0.587c1.25,0.069,2.508,0.139,3.786,0.235
	c1.133,0.083,2.185,0.187,3.234,0.297l1.886,0.18h0.008c0.124,0.014,0.297,0.035,0.469,0.063h0.008
	c0.483,0.069,0.967,0.131,1.465,0.048c1.956-0.325,3.884-0.684,5.813-1.037l0.588-0.104l0.02,0.394l10.588,5.176
	c-0.43,0.753-0.857,1.507-1.307,2.253l-8.977-4.396l0.041,0.374c0.056,0.491-0.083,1.348-0.353,2.377l7.941,3.884
	c-0.464,0.732-0.934,1.472-1.41,2.204l-7.292-3.573c-0.282,0.837-0.586,1.687-0.884,2.475l6.704,3.275
	c-0.506,0.719-1.009,1.438-1.528,2.143l-6.15-3.006l-0.297,0.657c-0.27,0.566-0.483,1.154-0.671,1.762l5.523,2.702
	c-0.54,0.705-1.094,1.396-1.652,2.087l-4.562-2.226c-0.207,0.822-0.442,1.673-0.746,2.522l3.606,1.769
	c-0.539,0.705-1.035,1.417-1.492,2.17l-3.207-1.575c-0.055,0.255-0.227,1.354-0.448,2.674l2.426,1.189
	c-0.359,0.781-0.685,1.597-0.968,2.425l-1.97-0.967c-0.229,1.051-0.47,1.99-0.705,2.557l1.963,0.954
	c-0.193,0.864-0.347,1.756-0.449,2.674l-1.161-0.566c0.318,0.436,0.719,0.726,1.127,0.781c-0.311,2.84-0.221,5.908,0.29,9.232h1.839
	c-0.547-4.119-0.34-8.072,0.855-11.796c0.484,0.027,0.947,0.386,1.127,1.451l7.318,3.58c-0.222-1.334-0.574-2.439-0.961-3.366
	l-6.862-3.351c0.325-0.795,0.698-1.583,1.127-2.35l3.738,1.831c-0.131-0.317-0.207-0.622-0.207-0.913
	c0-0.843-0.249-1.624-0.539-2.349l-1.604-0.788c0.359-0.511,0.746-1.016,1.161-1.52c1.402-1.513,2.751-3.055,4.029-4.623l6.24,3.054
	c-0.374-1.064-0.836-2.018-1.003-3.386l-3.593-1.755c0.545-0.698,1.07-1.41,1.59-2.122l2.059,1.002
	c0.09-0.705,0.255-1.507,0.483-2.412c0.021-0.056,0.077-0.11,0.152-0.159l-1.181-0.58c0.496-0.733,0.975-1.458,1.443-2.191
	l11.409,5.577c-0.304-3.082-1.285-1.616-2.508-4.125l-7.525-3.677c0.442-0.753,0.884-1.5,1.305-2.26l3.478,1.707
	c-0.913-0.78-1.998-1.555-3.055-2.481c0.387-0.698,0.753-1.396,1.112-2.114l0.076-0.035l0.075-0.16l0.408-0.918l0.007-0.007
	l0.408-0.926c1.133-2.501,2.266-5.017,3.24-7.581c0.975-2.563,2.123-5.038,3.394-7.442c1.286-2.419,2.695-4.748,4.188-7.008
	c1.838-2.798,3.745-5.611,5.709-8.438c1.941-2.826,3.924-5.618,5.936-8.396c2.184-3.02,4.389-6.026,6.606-8.984
	c2.232-2.972,4.499-5.923,6.813-8.811c1.978-2.46,3.98-4.927,6.048-7.318c2.065-2.391,4.194-4.72,6.427-6.917
	c2.059-2.025,4.243-3.946,6.509-5.784c2.247-1.838,4.583-3.601,6.933-5.301c2.549-1.837,5.147-3.642,7.884-5.127
	c2.73-1.479,5.618-2.646,8.763-3.227c0.566-0.104,1.195-0.124,1.817-0.083c0.685,0.041,1.368,0.166,1.99,0.338
	c1.225,0.346,2.144,1.037,2.875,1.907c0.761,0.892,1.334,1.997,1.832,3.11c0.843,1.845,1.597,3.752,2.343,5.653h0.007
	c0.573,1.458,1.154,2.916,1.755,4.333c0.69,1.597,1.203,3.228,1.589,4.887c0.381,1.665,0.622,3.365,0.754,5.072
	c0.111,1.431,0.173,2.84,0.214,4.243c0.034,1.424,0.049,2.84,0.056,4.257l0.015,1.224c0.026,3.531,0.055,7.076-0.098,10.615
	c-0.152,3.517-0.415,7.083-0.663,10.649c-0.117,1.485-0.222,2.984-0.325,4.519v0.007l-0.049,0.698
	c-0.02,0.588-0.054,1.182-0.151,1.735c-0.339,1.817-0.719,3.787-1.099,5.743c-0.505,2.591-1.003,5.189-1.465,7.809
	c-0.222,1.216-0.367,2.432-0.518,3.656c-0.153,1.271-0.312,2.543-0.534,3.773c-0.406,2.204-0.877,4.547-1.34,6.883
	c-0.768,3.821-1.527,7.644-2.121,11.493c-0.607,3.939-0.836,7.961-1.064,11.962l-0.069,1.229c-0.048,0.905-0.069,1.859-0.083,2.792
	c-0.049,2.529-0.103,5.065-0.897,7.505c-0.216,0.649-0.374,1.32-0.526,1.99c-0.234,1.009-0.47,2.017-0.897,2.896
	c-2.529,5.121-6.221,9.425-9.91,13.724c-1.527,1.783-3.055,3.573-4.505,5.411c-1.142,1.451-2.454,2.771-3.774,4.098
	c-1.022,1.037-2.065,2.08-3.02,3.179c-0.919,1.064-1.818,2.169-2.681,3.31c-0.829,1.078-1.625,2.204-2.379,3.358
	c-0.731,1.113-1.415,2.26-2.059,3.435c-0.642,1.168-1.244,2.364-1.811,3.559c-0.387,0.801-0.761,1.617-1.078,2.446
	c-0.317,0.836-0.587,1.708-0.739,2.619c-0.732,2.792-1.492,5.521-2.26,8.175l-9.025-4.416c-0.483,1.03-0.78,1.776-0.981,2.411
	l9.261,4.534c-0.256,0.843-0.511,1.687-0.768,2.515l-9.038-4.416c-0.104,0.649-0.257,1.438-0.505,2.481l-0.035,0.153l8.777,4.284
	c-0.276,0.843-0.554,1.672-0.83,2.494l-8.444-4.132c-0.146,0.843-0.284,1.748-0.436,2.681l8.023,3.925
	c-0.291,0.829-0.588,1.652-0.892,2.461l-7.56-3.698c-0.153,0.906-0.312,1.797-0.483,2.661l7.123,3.482
	c-0.316,0.823-0.635,1.625-0.96,2.42l-6.766-3.304c-0.27,0.989-0.56,1.839-0.892,2.461l6.642,3.247
	c-0.346,0.809-0.691,1.604-1.051,2.378l-6.274-3.069c-0.104,0.919-0.111,1.866-0.214,2.792l5.424,2.654
	c-0.255,0.863-0.532,1.693-0.815,2.494l-5.342-2.611c-0.241,0.538-0.173,1.402-0.462,2.667l4.844,2.372
	c-0.271,0.622-0.546,1.223-0.837,1.803l-0.276,0.547l-4.622-2.268c-0.104,0.207-0.215,0.414-0.34,0.63
	c-0.346,0.601-0.615,1.167-0.829,1.699l4.506,2.204c-0.47,0.76-0.968,1.492-1.479,2.17l-3.698-1.804
	c-0.138,1.016-0.109,1.928-0.124,2.826l2.336,1.147c-0.358,0.615-0.718,1.3-1.111,2.012l-0.146,0.27l-1.451-0.712
	c-0.077,0.241-0.173,0.491-0.276,0.739c-0.098,0.221-0.374,0.857-0.692,1.679l1.147,0.573c-0.429,0.732-0.897,1.48-1.402,2.197
	l-0.587-0.289c-0.152,0.524-0.263,1.035-0.332,1.499c-0.919,1.12-1.963,2.144-3.186,2.938l-0.111,0.076L335,257.213
	c-0.353,0.699-0.94,1.327-1.521,1.956c-1.249,1.341-2.501,2.689-2.087,5.011c0.015,0.09-0.165,0.366-0.304,0.595l-0.062,0.083v0.006
	l-2.682,4.195c-2.613,4.098-5.225,8.196-7.954,12.272c-0.69,1.03-1.444,2.054-2.26,3.014c-0.773,0.919-1.597,1.803-2.46,2.612
	c-0.422,0.395-0.926,0.865-1.485,1.162c-0.422,0.213-0.885,0.352-1.403,0.297v-3.179v-0.38l-0.365-0.104l-0.72-0.188l-0.4-0.109
	l-0.18,0.394c-0.104,0.229-0.229,0.483-0.353,0.739c-0.291,0.588-0.573,1.18-0.754,1.817c-0.221,0.852-0.407,1.68-0.587,2.502
	c-0.256,1.209-0.525,2.426-0.927,3.586c-0.386,1.127-0.87,2.211-1.354,3.305c-0.547,1.223-1.099,2.459-1.507,3.744
	c-0.429,1.313-1.341,2.059-2.425,2.869l0.71-2.744l0.111-0.428l-0.422-0.16l-0.566-0.193l-0.275-0.111l-0.229,0.209l-0.194,0.145
	v0.014c-0.221,0.16-0.456,0.338-0.58,0.637c-0.725,1.822-1.665,3.51-2.778,5.057c-1.112,1.563-2.405,3.002-3.829,4.334
	c-1.657,1.541-3.358,3.035-5.182,4.326c-1.817,1.291-3.752,2.393-5.881,3.158c-1.501,0.539-3.021,1.049-4.561,1.527
	c-1.514,0.463-3.055,0.885-4.617,1.244c-3.331,0.766-6.676,1.043-10.014,0.953c-3.345-0.09-6.688-0.547-10.024-1.252
	c-0.248-0.047-0.459-0.137-0.607-0.254c-0.093-0.068-0.169-0.152-0.2-0.242h-0.007c-0.027-0.076-0.034-0.166-0.015-0.262
	c0.021-0.131,0.095-0.27,0.215-0.43c0.536-0.697,1.103-1.416,1.71-2.1v-0.008c0.588-0.664,1.213-1.307,1.888-1.893v-0.008
	c1.402-1.244,2.937-2.398,4.464-3.553c2.557-1.941,5.135-3.891,7.305-6.379c1.175-1.367,2.163-2.818,3.019-4.324
	c0.858-1.508,1.577-3.07,2.253-4.664c0.851-2.012,1.368-4.086,1.687-6.18c0.325-2.1,0.471-4.202,0.581-6.282
	c0.138-2.439-0.049-4.872-0.229-7.305c-0.054-0.766-0.117-1.548-0.158-2.245c-0.015-0.297-0.153-0.622-0.333-0.893
	c-0.186-0.276-0.441-0.524-0.704-0.648l-0.601-0.284l-0.098,0.656l-0.109,0.692l-2.702-1.32c-0.374-0.028-0.505-0.138-1.548,2.135
	l3.891,1.9l-0.09,0.789l-0.25,1.948l-4.547-2.232c-0.304,0.829-0.566,1.665-0.773,2.522l4.961,2.425
	c-0.132,0.885-0.269,1.784-0.428,2.688l-5.045-2.467c-0.207,0.947-0.601,1.783-0.904,2.446l5.458,2.668
	c-0.186,0.877-0.394,1.748-0.607,2.598l-5.536-2.701c-0.248,0.939-0.601,1.734-0.768,2.514l5.558,2.717
	c-0.277,0.844-0.588,1.666-0.927,2.445l-4.851-2.369c-0.111,0.871-0.276,1.824-0.526,2.633l4.202,2.059
	c-0.47,0.781-0.975,1.508-1.534,2.143L264,297.123c-0.345,0.525-0.87,1.334-1.416,2.203l3.254,1.592
	c-1.009,0.635-2.142,1.057-3.412,1.223l-1.231-0.607l-0.442,0.711c-0.968,0.131-1.845,0.27-2.695,0.395
	c-2.1,0.318-4.153,0.629-6.191,0.787c-1.648,0.117-3.29,0.09-4.938,0.068c-1.081-0.02-2.165-0.035-3.247-0.014
	c-1.14,0.027-2.115-0.242-2.938-0.74c-0.898-0.537-1.62-1.361-2.187-2.361c-0.975-1.75-1.939-3.504-2.829-5.24
	c-0.899-1.762-1.764-3.545-2.541-5.375c-0.87-2.047-1.402-4.257-1.925-6.455l-0.348-1.431c-0.231-0.947-0.382-1.935-0.529-2.924
	c-0.101-0.704-0.208-1.402-0.349-2.121c-0.063-0.331-0.267-0.525-0.595-0.851h-0.007c-0.141-0.146-0.324-0.318-0.521-0.545
	l-0.716-0.809l-0.148,1.071c-0.056,0.414-0.121,0.78-0.17,1.099c-0.1,0.622-0.186,1.118-0.192,1.631
	c-0.07,3.759,0.297,7.429,0.999,11.035c0.701,3.609,1.728,7.154,2.989,10.658c0.569,1.609,1.399,3.053,2.377,4.373
	c0.975,1.314,2.107,2.502,3.303,3.629c1.728,1.609,3.411,3.09,5.091,4.566h0.006c1.562,1.375,3.127,2.744,4.579,4.092v0.008
	c0.615,0.566,1.123,1.277,1.696,2.088l0.411,0.566c-3.587,0.205-7.057,0.137-10.338-0.395c-3.545-0.58-6.908-1.721-10.014-3.662
	c-5.944-3.898-10.552-8.695-13.856-14.244c-3.39-5.688-5.414-12.176-6.129-19.322l-0.197-1.997l-0.75,1.865l-0.396,0.961
	l-0.029-0.083c-0.175-0.483-0.352-0.968-0.338-1.396c0.083-2.35-0.066-4.651-0.453-6.903c-0.398-2.253-1.04-4.465-1.949-6.661
	c-0.906-2.199-2.029-4.23-3.404-6.056c-1.378-1.837-2.999-3.468-4.89-4.885c-1.472-1.105-2.984-2.177-4.52-3.213
	c-1.471-0.988-2.982-1.943-4.516-2.848c-3.037-1.804-5.253-4.153-6.908-6.855c-1.661-2.709-2.781-5.798-3.6-9.032
	c-0.498-1.935-0.836-3.917-1.086-5.909c-0.245-2.01-0.418-4.035-0.542-6.046c-0.148-2.163-0.2-4.326-0.207-6.474
	c-0.007-2.163,0.034-4.34,0.086-6.51c0.055-2.695,0.184-5.431,0.304-8.169c0.157-3.614,0.318-7.235,0.339-10.884
	c0.02-2.654-0.539-5.135-1.535-7.422c-1.077-2.453-2.667-4.685-4.608-6.634c-2.384-2.405-5.011-4.547-7.64-6.683
	c-1.523-1.237-3.052-2.481-4.51-3.752l-0.466-0.408c-1.882-1.638-3.793-3.303-5.252-5.251c-1.096-1.473-2.148-2.985-3.054-4.554
	c-0.909-1.576-1.679-3.227-2.201-5.003l-0.173-0.588c-0.317-1.084-0.642-2.17-1.009-3.22c-0.276-0.774-0.587-1.555-0.898-2.335
	c-0.519-1.313-1.037-2.626-1.417-3.946c-0.397-1.41-0.65-2.875-0.905-4.34c-0.128-0.739-0.255-1.479-0.391-2.163l-0.114-0.581
	c-0.4-2.024-0.805-4.042-1.257-6.123c-0.215-0.988-0.412-2.018-0.608-3.047c-0.498-2.536-0.985-5.086-1.821-7.54
	c-0.75-2.226-1.6-4.409-2.505-6.559c-0.898-2.142-1.865-4.284-2.851-6.413c-1.399-3.026-2.871-6.012-4.335-8.984
	c-1.473-2.992-2.951-5.991-4.347-8.99c-0.757-1.651-1.486-3.317-2.156-5.01c-0.661-1.686-1.269-3.4-1.793-5.141
	c-0.961-3.2-2.102-8.853-1.662-13.58c0.27-2.889,1.126-5.425,2.985-6.793c0.56,0.104,1.112,0.208,1.659,0.311l-0.094,0.283
	l32.946,16.115l8.014,6.814l-41.257-20.179c0.042,1.084,0.277,2.211,0.681,3.228l48.509,23.724c1.805,1.645,3.545,3.469,5.234,5.459
	l-45.686-22.348c0.208,1.126,0.446,2.128,2.25,2.335c4.143,0.463,5.621,2.563,6.237,4.713l40.846,19.979
	c0.358,0.497,0.715,1.008,1.074,1.527c0.601,0.843,1.188,1.755,1.755,2.751l-43.181-21.126c0.108,1.03,0.235,1.783,0.723,1.97
	c1.721,0.628,2.56,1.541,2.902,2.701l41.433,20.269c0.481,1.113,0.94,2.301,1.373,3.566l-42.722-20.898
	c-0.11,0.823-0.291,1.714-0.48,2.661l44.262,21.652c0.298,1.057,0.581,2.163,0.85,3.31l-45.579-22.3
	c-0.048,0.338-0.093,0.684-0.128,1.03v0.014c-0.027,0.249-0.048,0.49-0.065,0.746v0.007L142.767,94v0.042v0.014
	c-0.103,1.175-0.265,2.82-0.352,3.455c0,3.469,2.281,6.379,2.281,6.379c0.014,0.014,0.265,0.512,0.677,1.278
	c1.268,2.363,3.645,6.786,5.528,8.956c0.136,0.152,0.339,0.449,0.595,0.857c1.047,1.658,2.688,4.837,3.884,7.782
	c1.006,2.467,1.762,4.623,1.559,4.948c-0.342,0.214-0.653,0.456-0.93,0.718c-0.225,0.215-0.439,0.442-0.622,0.678l-0.007,0.006
	l-0.007,0.021l-0.042,0.042l-0.007,0.013l-0.006,0.014l-0.014,0.014c-1.348,1.79-1.49,4.133-0.923,6.62
	c0.581,2.591,1.963,5.376,3.47,7.774c1.33,2.129,2.781,3.974,3.856,5.128H161.7c0.729,0.781,1.281,1.444,1.754,2.018
	c1.451,1.741,2.264,2.723,6.099,4.824c2.003,1.098,3.158,1.99,4.126,2.723C175.731,159.879,177.055,160.888,182.531,161.903
	 M388.391,61.977l0.007-0.014v-0.014l0.008-0.014l-22.211-10.871c0.56-0.705,1.118-1.396,1.687-2.066l20.925,10.228
	c0.049-0.954,0.027-1.949-0.069-2.923l-19.101-9.35c0.601-0.678,1.202-1.354,1.811-2.004l16.696,8.168
	c-0.194-0.67-0.437-1.271-0.712-1.762c-0.229-0.422-0.304-0.975-0.27-1.617l-13.835-6.766c0.649-0.663,1.313-1.306,1.969-1.928
	l12.371,6.046c0.22-0.801,0.496-1.651,0.773-2.515l-11.099-5.432c0.705-0.636,1.424-1.251,2.136-1.845l9.765,4.775
	c0.276-0.918,0.504-1.803,0.622-2.598l-8.147-3.98c0.774-0.602,1.562-1.182,2.356-1.741l6.426,3.151
	c0.374-0.705,0.809-1.527,1.018-2.398l-4.97-2.439c0.643-0.421,1.299-0.83,1.956-1.224l-0.969-1.562
	c-14.851,8.783-27.572,21.153-37.842,37.676c-12.432,20.165-19.522,41.464-18.492,64.497c0.415,3.871,1.796,7.056,4.457,9.377
	c-0.062,0.367-0.124,0.816-0.188,1.348c-0.034,0.29-0.116,0.574-0.221,0.863l16.198,7.927c0.339,0.38,0.671,0.774,0.989,1.188
	c3.123,1.652,5.978,3.718,8.472,6.323l-26.819-13.116c-0.359,0.718-0.691,1.52-0.864,2.474l31.389,15.349l0.297,0.477l0.345-0.159
	l2.931,1.431c0.401-0.242,1.14,0.324,2.046,1.002l3.531,1.727c0.496,0.007,0.987-0.138,1.451-0.518
	c0.441-0.346,0.857-0.699,1.264-1.051l-10.316-5.045c-0.872-1.507-1.798-2.937-2.799-4.264l15.085,7.374
	c0.608-0.678,1.141-1.369,1.604-2.108l-21.811-10.663c-0.76-0.615-1.542-1.188-2.363-1.714c0.601-0.477,1.195-0.975,1.783-1.465
	l23.558,11.52c0.304-0.788,0.546-1.631,0.719-2.536l-22.135-10.83c0.704-0.622,1.389-1.25,2.072-1.879l20.408,9.972
	c0.028-0.553,0.048-1.133,0.048-1.748c0-0.311,0.049-0.664,0.153-1.044l-18.604-9.101c0.656-0.643,1.307-1.285,1.941-1.949
	l17.637,8.631c0.353-0.712,0.759-1.472,1.223-2.294l-16.993-8.313c0.615-0.664,1.21-1.341,1.804-2.012l16.476,8.058
	c0.413-0.726,0.85-1.486,1.285-2.26l-16.026-7.843c0.566-0.684,1.127-1.382,1.673-2.08l15.604,7.636
	c0.399-0.768,0.795-1.534,1.175-2.322l-15.184-7.422c0.525-0.712,1.045-1.424,1.541-2.143l14.706,7.194
	c0.339-0.809,0.649-1.624,0.934-2.439l-14.167-6.938c0.483-0.727,0.954-1.465,1.409-2.198l13.497,6.6
	c0.187-0.747,0.332-1.493,0.429-2.239c0.021-0.146,0.048-0.277,0.076-0.415l-12.653-6.185c0.435-0.746,0.863-1.507,1.278-2.273
	l12.252,5.999c0.312-0.664,0.643-1.383,0.926-2.447l-11.963-5.846c0.401-0.774,0.788-1.548,1.154-2.329l11.285,5.515
	c0.098-0.795,0.166-1.714,0.207-2.792l-10.394-5.086c0.353-0.788,0.699-1.589,1.03-2.384l9.419,4.603
	c0.056-0.975,0.242-1.825,0.491-2.654l-8.936-4.381c0.311-0.802,0.607-1.617,0.906-2.446l8.872,4.346
	c0.263-0.76,0.525-1.583,0.746-2.536l-8.77-4.285c0.276-0.836,0.526-1.672,0.781-2.516l8.467,4.14
	c0.103-0.836,0.178-1.762,0.206-2.792l-7.94-3.883c0.229-0.851,0.449-1.707,0.663-2.564l7.063,3.455
	c-0.264-1.188-0.733-2.412-1.313-3.538l-5.142-2.522c0.235-1.043,0.456-2.093,0.657-3.158l-1.659-1.237
	c-7.076,23.69-18.936,43.44-37.469,57.676c-2.398-3.144-5.113-5.327-8.148-6.537l-0.027-0.083l-1.99-0.967
	c1.043-1.673,2.992-2.439,5.293-3.352c1.729-0.691,3.636-1.437,5.599-2.674c1.949-1.223,3.531-3.662,4.644-6.302
	c1.334-3.199,2.018-6.793,1.763-8.791c-0.021-0.166,1.354-1.638,3.021-3.98c2.923-4.119,6.765-9.35,6.965-9.543v-0.007
	c2.114-2.024,2.604-4.79,3.021-7.104c0.235-1.333,0.441-2.48,0.821-2.805c1.362-1.196,1.963-0.656,2.488-0.201
	c0.366,0.325,0.733,0.636,1.203,0.857c0.656,0.297,1.334,0.367,2.106-0.069c0.823,0.374,1.514,0.325,1.915-0.726l-0.685-0.332
	c1.1-1.224,2.397-3.386,4.05-6.993c1.728-3.78,1.707-9.571,2.309-14.74C387.79,68.175,387.858,64.104,388.391,61.977
	 M340.514,136.936c0.449-0.836,1.03-1.5,1.728-2.052l-5.728-2.799c0.601,1.597,1.278,2.903,2.183,3.96L340.514,136.936z
	 M344.931,133.308c0.725-0.332,1.513-0.65,2.328-0.975l0.899-0.352l-11.679-5.708c-0.049,0.939-0.077,1.893-0.098,2.847
	L344.931,133.308z M351.219,130.584c0.407-0.208,0.809-0.442,1.21-0.698c0.415-0.255,0.809-0.601,1.188-1.016l-16.694-8.175
	c-0.104,0.918-0.188,1.838-0.263,2.764L351.219,130.584z M355.116,126.701c0.345-0.602,0.656-1.25,0.94-1.921l0.165-0.428
	l-18.568-9.081c-0.146,0.892-0.284,1.79-0.4,2.695L355.116,126.701z M357.058,121.863c0.257-0.94,0.43-1.831,0.532-2.633
	l-18.921-9.253c-0.193,0.87-0.373,1.741-0.539,2.626L357.058,121.863z M357.908,116.494c0.276-0.56,0.739-1.34,1.334-2.247
	l-19.314-9.446c-0.229,0.85-0.449,1.707-0.658,2.57L357.908,116.494z M360.722,112.078l0.399-0.566l1.134-1.589l-20.85-10.187
	c-0.262,0.837-0.518,1.679-0.766,2.516L360.722,112.078z M363.796,107.786l1.556-2.128L343.07,94.753
	c-0.289,0.829-0.573,1.658-0.849,2.481L363.796,107.786z M366.919,103.53c0.83-1.106,1.396-1.852,1.494-1.942v0.006l0.151-0.152
	l-23.677-11.589c-0.311,0.815-0.621,1.631-0.926,2.446L366.919,103.53z M369.878,99.189c0.312-0.843,0.497-1.728,0.656-2.577
	l-23.703-11.589c-0.332,0.801-0.657,1.603-0.981,2.405L369.878,99.189z M371.052,93.972c0.249-0.939,0.588-1.734,1.21-2.315
	l-23.386-11.431l-1.029,2.391L371.052,93.972z M374.964,90.088c1.451-0.304,2.411,0.546,3.289,1.327
	c0.221,0.187,0.428,0.381,0.559,0.436c0.25,0.111,0.651-0.228,1.599-1.99l-29.426-14.388l-1.058,2.378L374.964,90.088z
	 M381.577,87.539c0.325-0.684,0.697-1.458,1.105-2.357l-29.516-14.442l-0.192,0.345l-0.92,2.018L381.577,87.539z M383.595,82.736
	c0.242-0.809,0.449-1.673,0.636-2.584l-28.458-13.925c-0.442,0.746-0.878,1.492-1.319,2.253L383.595,82.736z M384.707,77.49
	c0.139-0.892,0.263-1.797,0.381-2.709L358.53,61.79c-0.47,0.726-0.934,1.465-1.396,2.211L384.707,77.49z M385.419,72.044
	l0.104-0.856l0.214-1.88l-24.284-11.879c-0.497,0.712-0.988,1.43-1.485,2.17L385.419,72.044z M386.082,66.579
	c0.139-0.94,0.284-1.839,0.45-2.675l-21.976-10.746c-0.525,0.691-1.05,1.41-1.575,2.122L386.082,66.579z M225.45,132.775
	l1.891,0.926c-0.043-0.27-0.07-0.519-0.063-0.698c0.014-0.788,0.02-1.52,0.014-2.225l-7.982-3.904
	c0.076,0.788-0.355,1.327,1.13,2.37c0.673,0.47,1.212,1.161,1.783,1.922l-0.367,0.428c0.197,0.173,0.559,0.899,0.933,1.666
	c0.552,1.105,1.147,2.301,1.903,2.985c0.27,0.234,1.033,1.417,1.797,2.591c0.773,1.202,1.544,2.397,2.046,2.93
	c0.297,0.318,1.31,2.184,2.159,3.98c0.629,1.32,1.147,2.515,1.147,2.82h2.595c0-0.719-0.629-2.308-1.393-3.932
	c-0.95-1.991-2.166-4.161-2.612-4.638c-0.345-0.373-1.06-1.479-1.769-2.571c-0.863-1.327-1.721-2.66-2.243-3.123
	C226.13,134.04,225.791,133.439,225.45,132.775 M224.699,265.811l-2.525,0.573c-0.015,0.18-0.211,0.09-0.36,0.809
	c-0.128,0.588-0.248,1.133-0.29,1.237v0.007c-0.157,0.395-0.215,0.754-0.277,1.133c-0.08,0.498-0.177,1.072-0.688,1.652v0.007
	c-0.644,0.747-0.919,1.417-1.21,2.129c-0.304,0.746-0.636,1.561-1.669,2.467c-0.902,0.767-1.381,2.805,0.401,2.958l0.114,0.014
	c0.778,0,0.885-0.471,1.254-1.037l0.007-0.049c1.448-1.292,1.897-2.377,2.298-3.379c0.207-0.512,0.411-0.995,0.756-1.403h0.007
	c0.984-1.125,1.147-2.1,1.288-2.95c0.036-0.242,0.08-0.464,0.136-0.615c0.1-0.262,0.262-0.947,0.411-1.63v-0.008
	C224.517,266.951,224.672,266.108,224.699,265.811 M319.168,270.207l1.271,0.275c0.498-2.294,3.2-3.371,4.645-4.727
	c1.313-1.237,2.639-2.487,3.553-4.443h-0.008c0.063-0.138,0.063,0.014,0.222-0.159c0.573-0.573,1.438-1.451,1.858-2.19l-1.742-0.532
	c-0.24,0.436-1.478,0.429-1.948,0.899c-0.353,0.353-0.615,0.614-0.739,0.885v0.007c-0.705,1.499-1.845,2.576-2.979,3.641
	C321.566,265.507,319.838,267.13,319.168,270.207 M267.082,183.05l-2.522-0.601c-0.331,1.368-0.629,2.412-0.892,3.337
	c-0.649,2.239-1.133,3.918-1.388,7.589c-0.09,1.229-0.104,2.217,0.061,3.191c0.167,1.023,0.532,1.978,1.184,3.083l2.23-1.327
	c-0.483-0.816-0.738-1.487-0.855-2.177c-0.126-0.733-0.104-1.541-0.036-2.591c0.243-3.436,0.698-4.983,1.293-7.063
	C266.44,185.524,266.751,184.439,267.082,183.05 M256.744,129.438l-2.598,1.306v0.007c-0.008,2.723-0.015,4.327,0.466,7.45
	c0.19,1.258,0.215,3.939,0.021,6.399c-0.142,1.866-0.387,3.559-0.764,4.243c-0.919,1.707-0.255,6.8,0.297,11.037
	c0.958,3.648,0.177,4.865,2.789,6.074c0.331-0.498,0.331-0.684,0.324-1.085v-0.021v-0.056c0-1.07-0.253-3.047-0.542-5.251
	c-0.504-3.849-1.105-8.487-0.581-9.467c0.557-1.037,0.906-3.096,1.067-5.28c0.204-2.64,0.17-5.57-0.04-6.987h-0.012
	c-0.452-2.923-0.444-4.451-0.435-7.049v-0.007L256.744,129.438z M294.413,146.244c0.318,0.918,0.851,2.052,1.237,3.497l6.711,3.282
	c-0.401-1.285-0.685-2.46-0.685-2.888v-0.339L294.413,146.244z M296.1,152.857c0.007,0.339,0.007,0.691-0.013,1.057
	c-0.09,1.818,2.625,2.378,4.153,3.863l8.209,4.016c-0.353-1.203-1.306-2.792-4.16-4.243c-0.173-0.083-0.394-0.463-0.649-1.009
	L296.1,152.857z M301.822,161.44c0.304,0.421,0.678,0.801,0.933,1.057c2.114,2.115,1.036-0.27,3.427,3.731
	c0.077,0.125,0.167,0.249,0.277,0.388l12.432,6.067c0.104-2.529-1.21-0.967-3.613-3.414c-0.768-0.788-1.451-1.562-2.136-2.288
	L301.822,161.44z M301.987,132.582c0.132,1.23,0.173,2.19,0.194,2.985l6.212,3.041c-0.158-0.746-0.269-1.687-0.269-2.979v-0.048
	L301.987,132.582z M302.381,138.559c0.194,0.975,0.63,2.011,1.59,3.669l6.621,3.242c-0.588-1.051-1.044-2.149-1.168-3.366
	l-0.015-0.104L302.381,138.559z M306.507,146.361c0.927,1.5,2.08,3.262,3.063,4.403l11.491,5.619
	c-2.155-2.82-7.083-4.921-8.017-6.808v-0.014L306.507,146.361z M315.899,156.755c1.195,1.112,2.578,2.149,4.167,2.764
	c0.124,0.048,3.108,3.207,4.173,3.821c0.16,0.09,0.561,0.491,1.017,0.885l1.651,0.802c0.263-0.097,0.408-0.457,0.367-1.231
	c-0.036-0.705-0.74-1.479-1.638-2.28L315.899,156.755z M308.809,124.337c0.027,0.104,0.056,0.208,0.068,0.325
	c0.084,0.746,0.325,1.775,0.671,2.923l9.509,4.657c-0.062-0.519-0.068-1.244-0.068-2.93L308.809,124.337z M310.758,131.082
	c0.532,1.362,1.112,2.668,1.665,3.704l8.714,4.264c-0.566-1.023-1.07-2.211-1.347-3.559L310.758,131.082z M314.779,138.829
	c0.505,1.313,0.622,2.392,1.05,3.421l8.065,3.933c0.139-0.664,0.041-1.673,0.048-2.813l-0.007-0.056L314.779,138.829z
	 M290.557,118.304c0.118-0.615,0.146-1.347,0.077-2.218c-0.063-0.808-1.783-0.283-3.703,0.442L290.557,118.304z M283.571,117.779
	c-0.636,0.214-1.175,0.345-1.534,0.345c-1.99,0-1.9-0.221-2.909,0.373l8.34,4.085c0.664-0.657,1.411-1.182,2.02-1.908
	L283.571,117.779z M271.706,114.87c-0.934-2.626-1.494-1.203-4.617-2.847c-0.614-0.332-1.341-0.463-2.059-0.422L271.706,114.87z
	 M261.899,112.969c-0.628,0.608-1.058,1.403-1.147,2.335l12.094,5.916c0.056-1.009,0-2.011-0.199-2.993L261.899,112.969z
	 M277.352,120.523c-0.2,0.815-0.158,1.797-0.068,2.868l7.213,3.524c0.442-0.463,0.969-1.133,1.521-2.149L277.352,120.523z
	 M260.642,118.138c-0.056,0.919-0.159,1.908-0.291,2.765l11.458,5.597c0.257-0.843,0.491-1.706,0.663-2.57L260.642,118.138z
	 M277.538,126.41c0.042,0.968,0,1.922-0.229,2.778l4.506,2.205c0.242-0.711,0.525-1.5,0.954-2.426L277.538,126.41z M259.439,123.342
	c-0.381,0.615-0.656,1.514-0.851,2.481l11.604,5.68l0.075-0.27c0.222-0.726,0.47-1.464,0.727-2.238L259.439,123.342z
	 M275.921,131.407c-0.076,0.063-0.166,0.138-0.249,0.201c-0.317,0.228-1.022,0.918-1.741,1.72l6.04,2.951
	c0.483-0.891,0.809-1.651,1.058-2.37L275.921,131.407z M258.3,128.58c-0.021,0.975,0.048,1.838,0.206,2.371
	c0.07,0.228,0.139,0.477,0.194,0.719l10.428,5.093c0.221-0.801,0.387-1.728,0.547-2.619L258.3,128.58z M272.313,135.429
	c-0.158,0.262-0.27,0.49-0.332,0.677c-0.192,0.691-0.38,1.278-0.553,1.783l5.675,2.785c0.172-0.38,0.345-0.685,0.518-0.899
	c0.345-0.456,0.663-0.884,0.947-1.286L272.313,135.429z M237.96,124.42c0.066,0.401,0.178,0.843,0.357,1.348
	c0.272,0.822,2.943,1.734,3.77,1.818c1.061,0.124,1.295,1.478,2.193,2.819l7.893,3.863c-0.038-0.332-0.143-0.705-0.35-1.133
	c-0.148-0.317-0.248-1.126-0.352-2.107L237.96,124.42z M259.294,134.855c0.124,0.975,0.207,1.99,0.263,3.02l7.829,3.829
	c0.188-0.939,0.415-1.803,0.727-2.536L259.294,134.855z M270.537,140.356c-0.282,0.781-0.511,1.527-0.685,2.557l5.626,2.758
	c0.235-0.898,0.478-1.762,0.719-2.55L270.537,140.356z M216.988,119.949c0.034,0.263,0.061,0.546,0.068,0.85
	c0.014,0.602,0.243,1.473,0.554,2.35l9.48,4.637c-0.148-1.119-0.401-2.184-0.805-3.29L216.988,119.949z M259.66,140.819
	c0.008,0.961,0,1.928-0.014,2.889l7.104,3.483c0.068-0.939,0.139-1.88,0.241-2.785L259.66,140.819z M269.57,145.67l-0.015,0.221
	c-0.048,0.905-0.124,1.749-0.228,2.557l5.031,2.453c0.145-0.829,0.324-1.72,0.519-2.64L269.57,145.67z M246.091,137.073
	c-0.622-1.969-3.551-1.942-5.023-3.117c-0.317-0.249-2.08-0.85-3.047-0.829L246.091,137.073z M236.51,135.284
	c-0.021,1.175,0.716,2.301,0.972,3.373l10.026,4.906c0.121-0.698-0.229-1.928-0.601-3.186L236.51,135.284z M259.578,146.576
	l-0.083,2.847l6.855,3.358c0.09-0.871,0.158-1.811,0.221-2.792L259.578,146.576z M268.948,151.158
	c-0.131,0.939-0.256,1.837-0.331,2.729l5.252,2.571c-0.015-0.421-0.015-0.926-0.015-1.527c0-0.332,0.034-0.788,0.097-1.327
	L268.948,151.158z M211.249,125.823c-0.17-0.74-0.398-1.5-1.074-2.371c-0.682-0.892-1.331-1.451-2.416-1.589
	c-0.353-0.042-0.128-0.277-0.588,0.021c-0.649,0.421-1.116,0.829-1.472,1.23L211.249,125.823z M204.376,125.36
	c-0.325,0.677-0.729,1.368-1.576,2.121l9.941,4.858c0.177-0.918,0.204-1.845-0.211-2.992L204.376,125.36z M237.537,141.586
	c0.282,0.726,0.794,1.196,0.444,2.599c-0.041,0.173-0.069,0.332-0.075,0.47l9.239,4.526c0.018-0.74,0.031-1.389,0.08-1.894
	c0.02-0.208,0.034-0.546,0.041-0.946L237.537,141.586z M259.446,152.297v0.422c0,1.071,0.027,1.866,0.098,2.516l6.301,3.089
	c-0.131-0.85-0.131-1.811,0.083-2.854L259.446,152.297z M268.63,156.79c0.104,1.036,0.338,2.115,0.774,3.269l6.725,3.296
	c-0.208-0.442-0.464-1.126-0.795-2.211c-0.194-0.608-0.353-1.016-0.505-1.32L268.63,156.79z M202.099,130.038
	c0.048,0.823,0.183,1.652,0.418,1.97c0.438,0.58,0.742,1.112,0.96,1.596l8.161,3.995c0.07-0.422,0.131-0.905,0.211-1.479
	c0.048-0.429,0.128-0.83,0.221-1.209L202.099,130.038z M240.035,148.594l-0.015,0.276c-0.041,0.567,0.1,2.115,0.581,2.599
	c0.155,0.152,0.282,0.317,0.39,0.491l5.809,2.84c0.148-0.802,0.229-1.769,0.271-2.764L240.035,148.594z M260.254,158.482
	c0.139,0.491,0.298,1.058,0.464,1.755c0.165,0.67,0.387,1.224,0.644,1.687l4.87,2.377c0.671,0.076,1.314,0.145,1.866,0.325
	c0.547,0.18-0.007-1.203-0.062-1.666c-0.007-0.083-0.347-0.435-0.753-1.036L260.254,158.482z M271.49,163.977
	c1.259,1.72,3.215,3.822,4.646,3.822c0.912,0,1.595-0.194,1.921-0.602L271.49,163.977z M204.265,136.887
	c0.177,0.815,0.515,1.624,1.479,2.605c0.034,0.035,0.204,0.574,0.459,1.237l3.092,1.514c0.757-1.154,1.238-1.493,1.608-2.108
	L204.265,136.887z M241.655,155.172c0.027,0.643,0.086,1.175,0.349,1.458c1.676,1.804,0.238,1.479,2.073,2.626l1.04,0.504
	c0.636-0.007,0.493-1.396,0.765-2.522L241.655,155.172z M333.245,150.75c0.178,1.002,0.532,2.136,1.125,3.448l33.703,16.476
	c0.015-0.871-0.02-1.853-0.103-2.945L333.245,150.75z M336.416,158.088c0.795,1.776,0.712,2.592,1.342,3.545l29.355,14.36
	c0.318-0.67,0.58-1.493,0.753-2.522L336.416,158.088z M342.747,166.975c1.057,1.162,2.619,2.578,4.906,3.995
	c0.09,0.062,0.642,0.877,1.424,1.99l13.759,6.731c0.787-0.56,1.735-0.94,2.605-1.611L342.747,166.975z M352.643,177.604
	c0.296,0.332,0.587,0.636,0.871,0.913c0.234,0.221,0.987,1.831,1.983,3.372l4.637,2.274c0.414-0.477,0.795-1.237,1.147-2.336
	L352.643,177.604z M390.325,31.024c-0.413-0.346-0.938-0.691-1.623-1.01c-0.229-0.11-0.484-0.152-0.739-0.145L390.325,31.024z
	 M198.532,151.206l-0.241,0.173l-2.129,1.562l9.637,4.72c-0.169-1.147-0.376-2.226-0.629-3.207L198.532,151.206z M175.534,171.806
	c-0.715,0.345-1.641,0.615-2.848,0.781c-0.353,0.048-0.662,0.145-0.919,0.27l14.485,7.09c0.355-0.138,0.743-0.263,1.174-0.373
	c0.937-0.263,1.742-0.504,2.457-0.753L175.534,171.806z M173.368,176.533c0.635,1.147,1.458,2.744,2.166,3.96l5.222,2.549
	c0.189-0.069,0.39-0.152,0.601-0.234c0.749-0.311,1.324-0.809,2.073-1.348L173.368,176.533z M209.953,273.578l2.235,1.1
	c0.822-0.276,1.524-1.022,2.098-1.873l-3.718-1.817C210.308,271.961,209.946,272.887,209.953,273.578 M210.639,268.126l4.884,2.384
	l0.148-0.325c0.331-0.746,0.673-1.396,0.999-2.01l-9.492-4.639c1.633,1.569,1.188,2.309,2.505,3.353
	C210.167,267.262,210.464,267.677,210.639,268.126 M204.199,259.191l13.594,6.642c0.313-0.795,0.539-1.618,0.618-2.593
	l-14.584-7.138C203.754,257.055,203.93,258.168,204.199,259.191 M205.118,253.842l12.923,6.323
	c-0.418-1.341-1.147-2.717-2.039-3.891l-6.997-3.429C207.647,252.888,206.325,253.233,205.118,253.842 M359.974,196.422
	c-0.221-1.949-0.622-3.29-1.574-2.481l-0.312,0.144c-0.214,0.063-0.663,0.374-1.229,0.823L359.974,196.422z M346.008,189.594
	c-0.199-0.774-0.483-1.251-0.863-1.209c-0.478,0.062-0.843,0.138-1.134,0.228L346.008,189.594z M342.788,190.914
	c-0.097,0.664-0.284,1.486-0.851,2.474l4.583,2.247c-0.015-0.947-0.043-1.978-0.104-2.945L342.788,190.914z M354.715,196.746
	c-0.712,0.658-1.424,1.341-1.99,1.922l7.665,3.745c-0.091-0.836-0.139-1.894-0.201-2.992L354.715,196.746z M340.597,195.635
	c-0.103,0.739,0.043,1.726-0.041,2.874l5.708,2.785c0.138-0.566,0.242-1.313,0.263-2.756L340.597,195.635z M339.928,201.093
	l5.742,2.806l-0.007,0.027c-0.111,0.933-0.415,1.755-0.775,2.488l-6.391-3.124c0.131-0.18,0.262-0.36,0.413-0.56
	C339.353,202.172,339.685,201.625,339.928,201.093 M337.204,205.55l6.393,3.125c-0.291,0.532-0.49,1.023-0.505,1.492
	c-0.021,0.415-0.041,0.788-0.083,1.12l-7.27-3.56C336.443,206.843,336.858,206.165,337.204,205.55 M334.04,209.793l8.16,3.995
	c-0.946,0.843-2.362-0.802-3.089,0.083c-0.318,0.381-0.614,0.664-0.892,0.865l-5.349-2.62
	C333.092,211.328,333.568,210.464,334.04,209.793 M275.028,183.824c0.111-0.297,0.236-0.608,0.367-0.926
	c0.201-0.498-0.09-0.422-0.455-0.373c-0.637,0.068-1.251,0.18-1.847,0.359L275.028,183.824z M270.144,184.328
	c-0.705,0.553-1.313,1.224-1.762,2.039l5.479,2.675c0.049-0.892,0.146-1.749,0.374-2.709L270.144,184.328z M267.607,188.875
	l6.262,3.069c0.02,0.85,0.048,1.803,0.048,2.909l-6.364-3.103C267.553,190.603,267.553,189.601,267.607,188.875 M245.839,184.017
	c0.467,0.899,1.266,2.114,1.684,3.718l7.035,3.441c-0.107-1.292-0.336-2.453-0.715-3.241L245.839,184.017z M267.546,194.639
	l6.766,3.31c0.144,0.96,0.296,2.046,0.428,3.103l-7.325-3.586C267.49,196.554,267.524,195.592,267.546,194.639 M239.772,186.837
	l-0.043,0.034c-0.452,0.325-0.676,1.265-0.818,2.446l5.722,2.792c0.114-1.099,0.059-2.135-0.258-3.02L239.772,186.837z
	 M247.826,190.783c0.027,1.009,0.034,1.969,0.014,2.896l6.496,3.179c0.134-0.836,0.229-1.783,0.27-2.758L247.826,190.783z
	 M267.021,200.167l8.029,3.932c0.104,1.665,0,2.695-0.595,2.024c-0.71-0.807-1.422-0.802-2.052-0.428l-5.659-2.765
	C266.806,201.943,266.882,201.003,267.021,200.167 M238.684,192.096c-0.063,0.981-0.128,1.956-0.257,2.771l4.869,2.384
	c0.297-0.78,0.581-1.63,0.822-2.495L238.684,192.096z M247.69,196.505c-0.083,0.919-0.202,1.818-0.358,2.715l5.441,2.667
	c0.238-0.96,0.522-1.859,0.834-2.488L247.69,196.505z M266.522,205.716c-0.097,0.927-0.235,1.839-0.463,2.668l3.926,1.921
	c0.145-0.518,0.282-1.037,0.394-1.555c0.042-0.235,0.173-0.581,0.358-0.975L266.522,205.716z M237.678,197.396
	c-0.304,0.739-0.685,1.534-1.081,2.363l4.962,2.425c0.109-0.338,0.189-0.725,0.202-1.174c0.008-0.117,0.229-0.607,0.547-1.348
	L237.678,197.396z M246.759,201.839c-0.221,0.823-0.474,1.659-0.765,2.522l5.958,2.916c0.049-0.421,0.093-0.87,0.134-1.368
	c0.027-0.394,0.087-0.87,0.163-1.388L246.759,201.839z M264.995,210.755c-0.241,0.408-0.635,1.271-1.099,2.362l4.291,2.095
	c0.339-0.802,0.671-1.611,0.968-2.418L264.995,210.755z M235.491,202.116c-0.387,0.857-0.729,1.687-0.961,2.425l3.639,1.776
	c0.372-0.374,0.79-0.87,1.264-1.514c0.121-0.166,0.304-0.331,0.505-0.518L235.491,202.116z M245.072,206.801l-0.056,0.139
	c-0.148,0.353-0.318,1.285-0.487,2.494l6.126,3c0.35-0.802,0.622-1.548,0.851-2.481L245.072,206.801z M262.937,215.543
	c-0.312,0.809-0.615,1.645-0.899,2.454l4.119,2.018c0.332-0.815,0.663-1.617,1.003-2.404L262.937,215.543z M244.212,212.171
	c-0.094,0.919-0.172,1.879-0.221,2.792l4.649,2.266c0.084-0.255,0.185-0.511,0.291-0.788c0.238-0.607,0.46-1.147,0.671-1.63
	L244.212,212.171z M261.223,220.492c-0.263,0.897-0.422,1.617-0.422,1.996c0,0.235-0.014,0.457-0.049,0.671l3.711,1.817
	c0.235-0.856,0.49-1.699,0.781-2.515L261.223,220.492z M288,236.489l-3.081-1.506c0.511-0.027,1.064-0.02,1.672,0.007
	C287.592,235.031,288.111,235.661,288,236.489 M243.896,217.803c0,0.996,0.066,1.756,0.216,2.136c0.105,0.27,0.304,0.67,0.566,1.147
	l4.571,2.238c-0.646-0.953-1.079-2.044-1.079-3.427L243.896,217.803z M259.882,225.632c-0.408,0.719-0.906,1.431-1.368,2.211
	l4.056,1.99c0.401-0.649,0.788-1.34,1.154-2.329L259.882,225.632z M281.36,236.13l5.128,2.515c-0.216,0.153-0.442,0.312-0.705,0.471
	c-0.65,0.38-1.195,0.801-1.666,1.257l-4.562-2.226l0.194-0.255C280.296,237.131,280.813,236.558,281.36,236.13 M247.049,225.136
	c0.805,1.402,1.586,2.812,2.046,3.898l5.511,2.695c-0.028-0.318-0.075-0.678-0.148-1.071c-0.162-0.892-0.487-1.659-0.92-2.343
	L247.049,225.136z M257.381,230.193c-0.27,0.768-0.468,1.625-0.561,2.62l3.399,1.665c0.139-0.269,0.276-0.58,0.4-0.933
	c0.209-0.566,0.408-1.043,0.615-1.464L257.381,230.193z M277.876,240.222l4.568,2.238c-0.463,0.69-0.898,1.437-1.402,2.204
	l-5.148-2.522C276.529,241.61,277.186,240.988,277.876,240.222 M250.776,232.757c0.92,0.975,2.146,1.708,2.965,1.445
	L250.776,232.757z M273.565,243.904c-0.775,0.547-1.541,1.079-2.343,1.749l6.294,3.075c0.768-0.656,1.404-1.299,1.949-1.935
	L273.565,243.904z M269.218,247.561c-0.547,0.586-1.105,1.278-1.7,2.065l6.794,3.324c0.4-0.809,0.766-1.548,1.292-2.26
	L269.218,247.561z M266.261,251.907c-0.346,0.981-0.395,1.895-0.291,2.75l7.775,3.808c-0.506-0.855-0.741-1.837-0.43-3.103
	L266.261,251.907z M267.028,258.071c0.296,0.732,0.545,1.432,0.607,2.088c0.049,0.483,0.207,0.918,0.455,1.326l11.506,5.639
	c-0.097-0.538-0.199-1.05-0.27-1.479c-0.09-0.704-0.316-1.313-0.62-1.858L267.028,258.071z M272.106,266.343
	c0.062,0.193,0.117,0.381,0.145,0.58c0.802,4.79,7.063,4.872,7.525,3.179L272.106,266.343z M230.878,254.865
	c-0.056-0.201-0.101-0.4-0.121-0.629c-0.075-0.622-0.508-0.795-0.947-1.071l-0.107-0.063c-0.418-0.18-0.756,0.118-0.992,0.704
	L230.878,254.865z M228.366,256.53c0.041,1.099,0.27,2.273,0.722,3.249l10.534,5.154c0.039-0.109,0.054-0.214,0.054-0.297
	c0-2.17-1.29-2.682-2.797-3.938L228.366,256.53z M231.04,263.628c0.291,1.077,0.369,2.189-0.107,2.839l5.868,2.875
	c0.248-0.636,0.559-1.188,0.942-1.59c0.135-0.144,0.312-0.353,0.508-0.594L231.04,263.628z M228.967,268.402
	c-0.204,0.133-0.467,0.305-0.832,0.539c-0.633,0.394-1.2,0.753-1.693,1.127l9.212,4.506c0.127-0.892,0.27-1.804,0.442-2.681
	L228.967,268.402z M224.609,272.066c-0.342,0.704-0.511,1.555-0.455,2.667l1.651,0.808c0.218-0.097,0.425-0.255,0.587-0.49
	c0.542-0.773,1.251-1.133,1.993-1.133L224.609,272.066z M230.553,274.967c0.27,0.663,0.601,2.197,1.108,3.441l2.713,1.327
	c0.388-0.491,0.65-1.382,0.857-2.475L230.553,274.967z M302.838,259.128l13.081,6.405l1.693-2.072l-7.324-3.58l-1.721,0.111
	l-2.828-0.34l-2.445-0.759L302.838,259.128z M313.231,258.423l6.054,2.958l1.623-2.094l-4.899-2.397L313.231,258.423z
	 M318.677,255.3l3.933,1.928l2.031-1.907l-3.58-1.748L318.677,255.3z M323.438,251.845l3.001,1.465l1.458-2.191l-2.323-1.133
	l-0.884,0.953L323.438,251.845z M327.439,248.008l1.907,0.934l0.181-0.263l-1.618-1.182L327.439,248.008z M314.322,267.643
	l-9.736-4.763l2.252,2.889l0.885,1.541l5.081,2.488L314.322,267.643z M216.449,132.92c-0.325,0.29-0.581,0.67-0.716,1.12
	c-0.088,0.311-0.296,0.712-0.556,1.154l6.835,3.337c-0.041-1.229-0.352-2.356-0.595-3.179L216.449,132.92z M213.761,137.398
	c-0.539,0.836-0.979,1.617-0.999,2.101l-0.028,0.29l9.637,4.712c0.044-0.352,0.073-0.739,0.073-1.181
	c0-0.483-0.059-1.105-0.136-1.741L213.761,137.398z M212.046,142.346c-0.189,0.54-0.387,1.044-0.542,1.438
	c-0.148,0.373-0.255,0.718-0.335,1.029l9.937,4.859c0.036-1.162,0.27-1.921,0.529-2.633L212.046,142.346z M292.396,184.542
	l-0.338-1.927l-0.712,1.417L292.396,184.542z M210.945,147.598c-0.021,0.263-0.06,0.519-0.143,0.788
	c-0.241,0.788-0.275,1.389-0.197,1.936l9.382,4.595c0.27-0.857,0.525-1.755,0.722-2.543L210.945,147.598z M290.095,186.311
	l-1.438,2.198l4.714,2.301l-0.242-2.067l-0.173-1.036L290.095,186.311z M211.473,153.652l0.045,0.29
	c0.054,0.456,0.338,1.651,0.656,2.944l5.49,2.688c0.376-0.635,0.76-1.319,1.027-1.596c0.114-0.111,0.241-0.325,0.382-0.615
	L211.473,153.652z M287.296,190.734l6.427,3.145l0.049,0.457l-0.124,2.404l-7.596-3.718L287.296,190.734z M213.018,160.189
	l0.235,0.905c-0.025,0.871,1.439,0.83,2.487,0.429L213.018,160.189z M284.802,195.302l8.831,4.326
	c0.02,0.442,0.034,0.899,0.034,1.154c0,0.277-0.165,0.94-0.353,1.582l-9.385-4.595l0.816-2.363L284.802,195.302z M283.074,200.25
	l9.004,4.403l-1.853,1.609l-0.207,0.277l-8.058-3.932l0.739-1.285L283.074,200.25z M208.384,169.505
	c-0.127,0.325-0.235,0.608-0.297,0.76c-0.235,0.602-0.626,1.072-1.071,1.465l4.347,2.122c0.394-0.732,0.926-1.507,1.229-2.294
	L208.384,169.505z M222.692,176.499c-0.228,0.353-0.659,1.313-1.105,2.357l5.677,2.785c0.191-0.118,0.401-0.221,0.636-0.332
	c1.102-0.498,1.154-1.202,0.829-1.852L222.692,176.499z M280.669,204.86l7.705,3.773l-1.631,2.093l-7.367-3.6L280.669,204.86z
	 M204.717,173.5c-0.275,0.283-0.467,0.594-0.525,0.967c-0.061,0.463-0.282,0.919-0.581,1.389l5.954,2.916
	c0.304-1.361,0.359-1.775,0.678-2.57L204.717,173.5z M220.609,181.273c-0.279,0.733-0.474,1.272-0.48,1.369
	c-0.021,0.421-0.097,0.822-0.211,1.188l4.578,2.239c0.595-0.905,0.656-1.7,0.92-2.446L220.609,181.273z M277.779,209.241l7.45,3.648
	l-1.465,2.177l-7.567-3.711L277.779,209.241z M201.957,177.943c-0.353,0.429-0.688,0.843-0.919,1.244
	c-0.221,0.367-0.391,0.678-0.525,0.947l7.536,3.683c-0.007-1.271,0.335-1.707,0.729-2.543L201.957,177.943z M218.846,186.202
	c-0.224,0.525-0.387,1.063-0.379,1.658c0.007,0.076-0.049,0.463-0.134,0.989l4.627,2.266c0.141-0.421,0.248-0.726,0.311-0.842
	c0.179-0.36,0.375-0.982,0.545-1.638L218.846,186.202z M274.601,213.477l7.698,3.767l-1.429,2.191l-7.852-3.837L274.601,213.477z
	 M195.361,180.507c-0.67-0.125-1.393,0.028-2.039,0.829c-0.246,0.312-0.522,0.54-0.744,0.706l15.798,7.726
	c0.139-0.877,0.077-2.011-0.017-2.902L195.361,180.507z M217.865,191.509c-0.107,0.587-0.189,1.036-0.228,1.14
	c-0.177,0.601-0.304,1.064-0.394,1.458l4.229,2.065c0.214-0.787,0.459-1.693,0.715-2.549L217.865,191.509z M271.92,217.956
	l7.512,3.669l-1.354,2.059l-0.084,0.138l-6.163-3.02L271.92,217.956z M188.765,183.063c-0.408,0.069-0.685,0.18-0.699,0.421
	c-0.086,1.645,0.84,1.707,1.649,2.322c2.722,2.059,3.282-0.442,5.611,0.622c0.331,0.145,1.133,0.739,1.5,0.788
	c0.214,0.02,0.445,0.068,0.681,0.124L188.765,183.063z M217.015,196.884v0.318c0,1.009,0.175,1.922,0.438,2.792l4.254,2.08
	c-0.411-0.975-0.673-1.278-0.709-3.241L217.015,196.884z M271.747,223.656l4.88,2.384l-1.37,2.232l-3.606-1.762L271.747,223.656z
	 M218.743,203.526c0.197,0.553,0.366,1.12,0.479,1.708c0.177,0.885,0.419,1.333,0.661,1.741l2.885,1.41
	c0.653-0.47,0.412-1.735,0.073-2.854L218.743,203.526z M271.561,229.357l2.267,1.106l-1.479,2.177l-0.877-0.435L271.561,229.357z
	 M238.373,221.812c0.02-0.374,0.041-0.76,0.041-1.154c0-0.761-2.816-0.989-3.984-2.081c-1.116-1.05-2.129-0.954-2.858-1.569
	c-0.586-0.503-1.074-0.525-1.174-0.586c-2.107-1.438-1.295-1.285-3.888-1.285c-0.479,0-0.797,0.144-0.994,0.387L238.373,221.812z
	 M225.637,218.473c0.304,1.001,0.684,1.949,0.684,2.377c0,0.291,0.034,0.595,0.092,0.899l11.683,5.715
	c-0.196-0.96-0.141-1.908-0.034-2.909L225.637,218.473z M227.433,225.142c0.134,1.147,0.453,2.24,0.846,3.311l13.766,6.73
	c-0.963-1.201-1.451-2.791-1.917-3.828L227.433,225.142z M293.979,257.699l-1.658,1.727l-0.194,0.257l4.491,2.196l-0.088-2.938
	L293.979,257.699z M229.769,232.081c0.557,1.16,1.434,2.839,1.479,3.157c0.027,0.18,0.056,0.345,0.09,0.498l12.625,6.177
	c-0.073-0.539-0.093-1.14-0.176-2.253c-0.015-0.144-0.095-0.449-0.222-0.836L229.769,232.081z M290.481,261.767l-1.638,2.095
	l7.961,3.897l-0.096-2.936L290.481,261.767z M232.985,239.44c0.775,2.267,2.09,2.191,3.017,3.919l0.317,0.607l11.437,5.592
	c-0.849-0.879-2.031-2.965-2.625-4.175L232.985,239.44z M288.637,266.662l2.038,3.89l6.31,3.089l-0.09-2.936L288.637,266.662z
	 M241.005,249.157c1.259,0.795,3.764,2.135,4.309,2.212c0.148,0.013,0.304,0.062,0.474,0.124L241.005,249.157z M292.97,274.566
	l2.743,4.236l0.068,0.036l1.03-2.392L292.97,274.566z M289.817,278.817l-1.416,0.656l-0.684,1.217l4.94,2.411l-0.712-2.55
	l-1.514-1.431L289.817,278.817z M286.48,282.969l-0.892,2.467l10.731,5.246l-0.926-1.527l-1.465-2.527L286.48,282.969z
	 M284.697,287.891l-0.379,1.049l-0.581,1.377l13.316,6.51l0.885-2.453L284.697,287.891z M282.734,292.721l-1.002,2.412l12.433,6.074
	l0.366-0.441l1.182-1.693L282.734,292.721z M280.71,297.523l-1.383,2.219l11.086,5.426l1.431-1.176l0.607-0.725L280.71,297.523z
	 M277.953,301.961l-1.272,2.031l-0.131,0.18l9.986,4.887l1.686-2.074L277.953,301.961z M275.016,306.314l-1.54,2.143l10.116,4.939
	l0.511-0.379l0.94-1.797L275.016,306.314z M271.933,310.6l-0.192,0.27l-1.679,1.713l7.746,3.787l2.53-0.553l0.897-0.67
	L271.933,310.6z M221.749,291.836c-0.325,0.09-0.729,0.166-1.351,0.223c-1.621,0.15-1.837,0.635-2.173,0.951l9.181,4.5
	c-0.156-0.939-0.208-1.879-0.454-3.123L221.749,291.836z M268.132,314.531l-1.913,1.955l2.392,1.174l0.87,0.092l4.133-0.541
	L268.132,314.531z M214.376,294.027l-0.156,0.387c-0.101,0.256-0.277,1.65-0.17,1.99c0.027,0.09,0.107,0.256,0.229,0.463
	l15.099,7.387c-0.438-1-0.642-2.521-0.822-3.295L214.376,294.027z M217.095,301.145c0.853,1.293,1.958,3,2.815,4.271l22.218,10.869
	c0.398-1.387-4.024-2.141-4.533-3.061c-0.701-1.291-2.252-0.732-2.938-2.344c-0.199-0.469-1.437-1.732-1.62-1.822
	c-0.341-0.18-0.622-0.354-0.87-0.539L217.095,301.145z M226.067,311.316c2.029,1.688,4.71,2.475,6.68,4.369
	c0.813,0.779,3.801,1.74,5.256,1.479L226.067,311.316z M298.74,197.492c0.021-0.766,0.096-1.546,0.214-2.321l1.99,0.705
	C300.211,196.401,299.479,196.94,298.74,197.492 M299.514,192.607c0.229-0.823,0.505-1.645,0.829-2.474l6.123,2.19
	c-0.947,0.546-1.9,1.127-2.854,1.742L299.514,192.607z M301.497,187.784l8.058,2.875c1.147-0.566,2.287-1.078,3.421-1.541
	l-9.855-3.511C302.568,186.291,302.029,187.023,301.497,187.784 M304.952,183.5l11.922,4.25c1.582-0.47,3.157-0.83,4.733-1.072
	l-14.554-5.19C306.349,182.096,305.649,182.767,304.952,183.5 M309.54,179.615l18.942,6.751c1.231,0.083,2.461,0.242,3.698,0.484
	c0.4-0.511,0.725-1.037,0.967-1.582l-20.545-7.326C311.566,178.399,310.543,178.959,309.54,179.615 M316.742,176.664l16.882,6.013
	c-0.056-0.981-0.359-2.018-0.926-3.089l-8.154-2.909C321.862,176.208,319.258,176.18,316.742,176.664 M227.122,239.703
	c0.175-0.034,0.359-0.062,0.535-0.09c0.066-0.574,0.306-1.196,0.163-1.721c-0.5-1.831-1.123-3.635-1.703-5.446
	c-1.672-5.237-4.741-9.682-8.061-13.952c-0.466-0.595-1.514-1.064-2.284-1.064c-5.069,0.027-9.817-1.237-14.429-3.186
	c-1.012-0.422-2.125-0.615-3.449-0.981c0.208,0.67,0.201,1.127,0.411,1.271c1.538,1.127,3.059,2.301,4.699,3.255
	c2.277,1.32,4.748,2.314,6.977,3.704c2.287,1.424,4.381,3.157,6.562,4.761c3.504,2.563,6.179,5.854,8.328,9.606
	C225.605,237.146,226.372,238.417,227.122,239.703 M214.835,213.657c0.073-0.2,0.193-1.05,0.263-1.251
	c-0.452-0.414-1.04-0.76-1.331-1.264c-5.524-0.104-9.886-3.463-11.769-4.43c-3.497-2.716-5.403-5.038-6.53-8.203
	c-0.452-2.169-1.168-3.337-3.072-3.994c-1.521-0.518-3.064-0.989-4.6-1.486c2.316,5.917,5.294,10.961,10.318,14.5
	C203.186,211.107,208.94,212.841,214.835,213.657 M184.124,192.462c0.183,0.069,0.37,0.131,0.547,0.194
	c1.796,7.933,6.381,13.939,13.247,17.995c5.256,3.103,10.988,5.224,17.28,5.341c1.054,0.021,2.454,0.09,3.079,0.746
	c1.448,1.514,2.484,3.421,3.784,5.101c0.355,0.469,1.04,0.67,1.579,0.996c0.211-0.532,0.532-1.057,0.594-1.618
	c0.042-0.408-0.134-0.933-0.397-1.271c-3.249-4.313-6.31-8.797-9.873-12.848c-4.661-5.286-9.954-9.903-16.131-13.497
	c-5.309-3.082-10.872-4.83-17.022-4.699c-1.485,0.028-2.346,0.815-2.487,2.253c-0.094,1.001-0.08,2.052,0.11,3.033
	c0.843,4.505,2.678,8.673,5.487,12.218c1.655,2.102,4.111,3.56,6.22,5.3c0.02,0.021,0.161-0.103,0.275-0.18
	c-1.31-1.754-2.646-3.468-3.9-5.259c-2.447-3.497-3.687-7.353-3.142-11.651C183.475,193.878,183.869,193.181,184.124,192.462
	 M217.171,238.183c-1.303-1.784-2.329-4.167-4.89-2.986c-2.578,1.188-7.791-2.163-9.919-3.434c-3.874-2.308-6.942-4.52-7.948-8.729
	c-0.175-1.278-0.836-2.01-2.039-2.425c-1.267-0.442-2.47-1.064-3.728-1.541c-0.525-0.201-1.113-0.242-1.821-0.4
	C191.957,232.523,207.655,240.214,217.171,238.183 M228.273,264.097c0.192-0.063,0.382-0.118,0.573-0.18
	c0.02-0.464,0.207-0.994,0.044-1.383c-0.749-1.803-1.465-3.641-2.43-5.327c-2.149-3.759-4.513-7.395-6.644-11.161
	c-1.208-2.143-2.681-3.081-5.3-2.991c-4.977,0.173-9.326-0.333-13.715-2.799c-1.371-0.761-3.247-2.073-4.685-2.731
	c-0.103,0.146-0.21,0.284-0.318,0.423c0.376,0.505,0.661,1.161,1.154,1.507c1.99,1.375,3.985,2.771,6.085,3.959
	c2.633,1.486,5.494,2.606,8.048,4.201c2.277,1.431,4.301,3.283,6.396,4.996c3.144,2.585,6.271,5.171,8.372,8.763
	C226.456,262.411,227.46,263.199,228.273,264.097 M209.168,251.279c-2.107-0.823-4.147-1.293-5.825-2.337
	c-8.08-5.023-14.896-11.616-18.441-20.53c-0.84-2.123-0.857-4.458-0.238-7.077c0.5,0.808,0.926,1.347,1.203,1.942
	c1.782,3.903,4.329,7.297,7.536,10.068c2.736,2.377,5.631,4.547,9.271,5.701c4.246,1.355,8.496,2.245,12.926,2.309
	c1.234,0.014,2.471-0.249,3.718-0.297c0.967-0.042,1.939,0.034,2.906,0.061c-0.367-1.208-0.736-2.418-1.11-3.62
	c-0.027-0.098-0.162-0.159-0.241-0.241c-2.335-2.447-4.485-5.115-7.049-7.298c-3.254-2.758-6.613-5.542-10.352-7.547
	c-4.62-2.488-9.616-4.34-14.554-6.17c-3.086-1.147-6.35-1.846-9.567-2.592c-1.565-0.359-1.983,0.153-1.755,1.728
	c0.231,1.63,0.465,3.255,0.846,4.845c0.445,1.852,0.87,3.738,1.638,5.466c1.271,2.86,2.495,5.839,4.316,8.348
	c2.632,3.635,5.524,7.16,8.772,10.235c2.364,2.239,5.373,3.897,8.303,5.396C203.713,250.822,206.138,252.086,209.168,251.279
	 M260.897,306.578c-4.318,0.096-8.648-0.078-12.943,0.09c-0.143,0.006-0.729,0.482-0.972,0.703l-0.068,0.063l0.027,0.041
	c1.195,3.586,5.881,2.578,9.021,1.963C258.029,309.133,259.053,308.117,260.897,306.578 M366.098,196.221
	c-1.458,7.195-3.027,13.829-4.761,19.578c-1.75,5.77-3.685,10.698-5.854,14.47c-0.828,3.45-1.762,6.663-2.818,9.571
	c-1.058,2.938-2.261,5.57-3.602,7.845c-1.319,2.715-2.984,5.12-4.851,7.373c-1.846,2.232-3.897,4.333-5.964,6.427
	c-2.378,2.411-4.514,5.023-6.482,7.774c-1.983,2.765-3.786,5.646-5.494,8.583c-1.755,2.991-3.67,5.895-5.881,8.535
	c-2.225,2.652-4.761,5.066-7.76,7.068c-0.727,0.486-1.251,1.432-1.77,2.357v0.008c-0.18,0.332-0.366,0.656-0.595,1.021h0.007
	c-0.193,0.313-0.345,0.686-0.483,1.043c-0.146,0.348-0.276,0.699-0.471,1.023c-0.926,1.66-1.962,3.428-2.992,5.191l-0.331,0.572
	c-0.602,1.023-1.39,1.818-2.288,2.447c-0.892,0.615-1.879,1.084-2.923,1.479c-0.275,0.111-0.566,0.27-0.836,0.471
	c-0.256,0.178-0.477,0.4-0.657,0.627c-1.982,2.613-4.311,4.756-6.869,6.545c-2.57,1.791-5.368,3.227-8.313,4.422
	c-1.969,0.803-4.036,1.371-6.108,1.938c-1.092,0.303-2.19,0.6-3.303,0.945c-0.194,0.063-0.401,0.16-0.588,0.291
	c-0.186,0.123-0.346,0.281-0.47,0.428c-1.409,1.818-2.965,3.387-4.761,4.576c-1.813,1.201-3.856,2.037-6.234,2.383
	c-0.705,0.098-1.41,0.354-2.101,0.607h-0.007c-0.829,0.297-1.672,0.602-2.557,0.686c-1.918,0.186-3.752-0.119-5.478-0.699
	c-1.713-0.574-3.334-1.424-4.875-2.328c-1.168-0.691-2.267-1.541-3.293-2.475c-1.032-0.939-1.987-1.934-2.898-2.916
	c-0.581-0.629-1.161-1.16-1.796-1.541c-0.62-0.373-1.29-0.609-2.085-0.656c-3.288-0.207-6.099-1.674-8.867-3.123l-0.345-0.18
	c-2.343-1.217-4.62-2.578-6.724-4.176c-2.107-1.594-4.025-3.426-5.646-5.59l-0.708-0.939c-2.626-3.482-5.268-7.002-6.276-11.473
	c-0.396-1.762-0.892-3.461-1.382-5.168c-0.29-1.016-0.586-2.039-0.839-3c-0.1-0.365-0.27-0.738-0.469-1.111
	c-0.246-0.436-0.537-0.85-0.826-1.209c-0.525-0.629-0.836-1.307-0.992-2.031c-0.163-0.706-0.184-1.453-0.135-2.233
	c0.042-0.629,0.028-1.258,0.021-1.886c-0.015-0.658-0.021-1.321,0.02-1.971c0.107-1.72-0.148-3.351-0.594-4.933
	c-0.446-1.597-1.096-3.179-1.756-4.756c-1.385-3.303-3.43-5.956-5.884-8.16c-2.471-2.219-5.38-3.995-8.458-5.558
	c-3.099-1.555-5.631-3.552-7.677-5.963c-2.039-2.405-3.58-5.232-4.699-8.438c-0.899-2.605-1.521-5.253-1.973-7.927
	c-0.453-2.675-0.744-5.37-0.978-8.085c-0.446-5.273-0.204-10.925,0.044-16.716c0.224-5.438,0.466-11.01,0.138-16.517
	c-0.117-2.011-0.435-3.974-1.062-5.798c-0.622-1.811-1.546-3.497-2.877-4.969c-1.303-1.43-2.705-2.805-4.16-4.132
	c-1.444-1.313-2.958-2.599-4.467-3.863l-0.077-0.062c-4.712-3.946-9.454-7.913-12.788-13.144c-1.147-1.797-2.215-3.705-3.141-5.673
	c-0.843-1.804-1.572-3.677-2.132-5.55c-1.095-3.738-1.852-7.546-2.612-11.347c-0.435-2.198-0.885-4.403-1.372-6.545
	c-0.473-2.052-1.102-4.063-1.734-6.081l-0.622-2.032c-0.311-1.037-0.65-2.135-1.047-3.393c-0.359-1.147-0.736-2.267-1.102-3.359
	c-0.155-0.456-0.425-0.898-0.688-1.34v-0.007c-0.128-0.201-0.256-0.408-0.339-0.566c-0.021-0.042-0.079-0.111-0.134-0.166
	c-0.183-0.215-0.37-0.436-0.356-0.761c0.065-1.935-0.877-3.511-1.817-5.086c-0.419-0.698-0.843-1.403-1.189-2.149
	c-0.358-0.794-0.688-1.617-0.999-2.433c-0.338-0.871-0.677-1.741-1.082-2.591c-0.525-1.12-1.112-2.191-1.693-3.261
	c-0.431-0.789-0.864-1.583-1.237-2.316c-1.565-3.075-2.93-6.22-4.105-9.453c-1.168-3.227-2.143-6.524-2.909-9.875
	c-0.529-2.309-1.009-4.658-1.286-7.028c-0.27-2.384-0.328-4.797,0-7.222c0.211-1.568,0.615-2.999,1.317-4.305
	c0.698-1.313,1.689-2.495,3.092-3.566c1.047-0.802,2.028-1.181,3.013-1.313c0.955-0.132,1.905-0.014,2.91,0.138
	c1.465,0.229,2.937,0.47,4.357,0.733c1.452,0.262,2.903,0.56,4.347,0.905c2.201,0.532,4.364,1.064,6.461,1.617
	c2.136,0.566,4.281,1.175,6.417,1.832c2.499,0.774,4.982,1.589,7.446,2.432c2.411,0.83,4.889,1.714,7.38,2.606
	c1.067,0.379,2.1,0.822,3.12,1.292c1.033,0.484,2.031,0.981,3.013,1.479c1.295,0.629,2.639,1.251,3.97,1.866
	c4.429,2.06,8.866,4.119,12.887,6.917c3.234,1.873,5.992,4.229,8.442,6.89c2.45,2.667,4.585,5.632,6.583,8.721
	c0.642,1.009,1.322,2.004,2,2.993v0.007l1.133,1.672v0.007c0.418,0.615,0.85,1.175,1.365,1.638c0.512,0.463,1.106,0.843,1.842,1.133
	c1.089,0.422,1.959,1.292,2.809,2.149c0.258,0.27,0.529,0.54,0.798,0.795c0.488,0.456,0.991,0.809,1.535,1.063h0.005
	c0.546,0.249,1.154,0.415,1.856,0.498c1.351,0.166,2.561,0.664,3.674,1.34c1.081,0.664,2.073,1.507,3.043,2.378l0.729,0.663
	l0.007,0.006c1.372,1.259,2.765,2.544,4.323,3.421c1.011,0.566,2.046,0.877,3.12,0.905s2.214-0.235,3.431-0.808
	c1.801-0.843,4.05-0.74,6.144-0.644l0.81,0.035c1.008,0.041,2.007,0.249,2.998,0.448c1.082,0.221,2.174,0.442,3.234,0.429
	c1.109-0.013,2.249-0.38,3.397-0.746c0.566-0.18,1.14-0.366,1.748-0.511c0.452-0.111,0.96-0.249,1.484-0.387
	c1.438-0.387,2.887-0.775,4.389-0.913c0.712-0.062,1.376,0.214,2.061,0.491c0.442,0.186,0.904,0.373,1.327,0.421
	c0.537,0.076,1.118,0.096,1.679,0.055c0.483-0.042,0.946-0.125,1.361-0.27c2.384-0.856,4.761-1.175,7.138-1.167
	c2.364,0.014,4.728,0.353,7.111,0.802c1.182,0.228,2.447,0.172,3.719,0.117c0.648-0.035,1.298-0.063,1.956-0.055
	c0.911,0.007,1.817,0.028,2.715,0.042l2.716,0.069c0.395,0.015,0.781,0.056,1.167,0.104c0.699,0.083,1.39,0.167,1.978,0.014
	c2.225-0.56,4.457-0.912,6.703-1.016c2.238-0.11,4.485,0.014,6.745,0.38c1.216,0.2,2.362,0.649,3.503,1.099l0.871,0.338
	c0.331,0.131,0.594,0.187,0.761,0.138c0.144-0.055,0.275-0.228,0.414-0.573l0.733-1.949c0.877-2.322,1.754-4.658,2.895-6.863
	c1.244-2.411,2.495-4.83,3.814-7.221c1.313-2.392,2.695-4.741,4.194-7.007c3.843-5.819,8.024-11.437,12.212-17.049l0.809-1.091
	l1.555-2.087c3.689-4.976,7.4-9.972,11.424-14.657c2.045-2.378,4.207-4.686,6.419-6.925c2.218-2.252,4.5-4.43,6.807-6.551
	c2.005-1.845,4.092-3.614,6.234-5.328c2.17-1.721,4.346-3.372,6.516-4.962c1.473-1.085,3.006-2.121,4.59-3.075
	c1.575-0.946,3.213-1.817,4.885-2.571c1.342-0.601,2.771-1.063,4.236-1.417c1.458-0.359,2.951-0.601,4.402-0.773
	c2.384-0.284,4.533,0.221,6.364,1.396c1.881,1.189,3.414,3.068,4.527,5.501c1.043,2.294,2.018,4.644,2.929,7.015
	c0.921,2.384,1.77,4.768,2.565,7.138c0.566,1.672,0.767,3.448,0.968,5.217c0.068,0.629,0.144,1.265,0.233,1.928
	c0.132,0.891,0.25,1.811,0.359,2.744c0.104,0.926,0.201,1.846,0.27,2.757c0.083,1.161,0.034,2.342-0.007,3.511l-0.013,0.366
	c-0.049,1.25-0.09,2.481-0.126,3.71c-0.09,3.234-0.178,6.469-0.442,9.655c-0.214,2.557-0.476,5.148-0.772,7.746
	c-0.297,2.578-0.63,5.156-0.989,7.713c-0.656,4.637-1.43,9.28-2.204,13.917l-0.629,3.746c-0.324,2.004-0.663,3.891-0.994,5.785
	c-0.622,3.531-1.259,7.069-1.735,10.607c-0.436,3.165-0.829,6.337-1.182,9.509c-0.352,3.221-0.685,6.399-0.961,9.544
	c-0.124,1.319-0.103,2.688-0.076,4.049c0.034,1.672,0.063,3.344-0.165,4.989c-0.263,1.818-0.829,3.531-1.575,5.183
	c-0.733,1.624-1.638,3.199-2.593,4.762c-2.432,3.953-5.479,7.367-8.526,10.767c-2.095,2.35-4.202,4.699-6.103,7.242
	c-1.259,1.693-2.743,3.227-4.223,4.755c-1.092,1.125-2.183,2.252-3.165,3.42c-1.341,1.589-2.57,3.262-3.635,5.031
	c-1.064,1.762-1.963,3.628-2.64,5.618c-0.173,0.497-0.366,1.023-0.575,1.568h0.008C366.52,195.171,366.304,195.689,366.098,196.221
	 M261.457,324.475c-1.092-0.234-2.101-0.482-3.116-0.711c-4.541-1.092-8.977-2.148-13.607-1.002c0.094,0.4,0.27,0.76,0.494,1.076
	c0.363,0.506,0.878,0.926,1.459,1.273c0.929,0.553,1.861,1.084,2.795,1.596l0.007-0.006c0.964,0.518,1.91,1.016,2.854,1.471
	c1.54,0.74,3.312,0.789,4.91,0.291c1.614-0.512,3.058-1.598,3.908-3.09c0.116-0.221,0.193-0.504,0.276-0.828L261.457,324.475z
	 M278.119,255.667l-0.94-1.37c17.815-23.951,38.886-38.94,65.989-37.351c-6.227,16.233-16.316,28.816-32.991,35.175l-1.043-1.307
	c15.535-7.132,22.805-17.497,23.523-30.434l-1.845,0.104c-2.163,12.556-10.215,21.533-28.763,23.8
	c-3.697,0.455-7.822,0.635-12.412,0.532l-3.04,3.435c8.818,0.573,18.68-0.953,29.528-4.443
	C306.259,250.448,293.211,253.966,278.119,255.667 M292.775,241.355c3.442-4.396,6.891-7.512,11.929-11.038
	c3.903,3.567,8.816,4.576,14.318,4.085C311.179,240.353,302.804,241.796,292.775,241.355 M290.551,219.586
	c3.828-5.881,7.699-9.757,12.101-13.026c4.264,2.508,9.095,3.959,14.381,4.574C309.105,216.677,300.516,219.261,290.551,219.586"/>
</svg>
